<?xml version="1.0" encoding="UTF-8"?>
<svg xmlns="http://www.w3.org/2000/svg" width="420" height="80" viewBox="60 0 700 130">
  <defs>
    <style><![CDATA[
      .darkBlue{fill:#0D4366}
      .teal{fill:#0D9373}
      .text{font-family:Arial, sans-serif; font-weight:700; font-size:110px; fill:#0D4366}
      .stroke{stroke:#0D4366; stroke-width:8; stroke-linecap:round; stroke-linejoin:round; fill:none}
    ]]></style>
  </defs>

  <g transform="translate(40,20)">
    <line x1="80" y1="40" x2="160" y2="40" class="stroke"/>
    <line x1="160" y1="40" x2="200" y2="10" class="stroke"/>
    <line x1="160" y1="40" x2="200" y2="70" class="stroke"/>
    <circle cx="80" cy="40" r="14" class="darkBlue"/>
    <circle cx="160" cy="40" r="12" class="teal"/>
    <circle cx="200" cy="10" r="12" class="teal"/>
    <circle cx="200" cy="70" r="12" class="teal"/>

    <g transform="translate(220,-8)">
      <rect x="0" y="0" rx="8" ry="8" width="72" height="48" class="teal"/>
      <polygon points="16,48 28,48 22,56" class="teal"/>
      <circle cx="50" cy="20" r="6" class="darkBlue"/>
    </g>

    <g transform="translate(220,50)">
      <rect x="0" y="0" rx="8" ry="8" width="72" height="48" class="teal"/>
      <polygon points="16,0 28,0 22,-8" class="teal"/>
      <circle cx="50" cy="28" r="6" class="darkBlue"/>
    </g>
  </g>

  <text x="360" y="95" class="text">OsmoX</text>
</svg>
