<?xml version="1.0" encoding="UTF-8"?>
<svg xmlns="http://www.w3.org/2000/svg" width="64" height="64" viewBox="0 0 64 64">
  <defs>
    <style>
      .darkBlue{fill:#0D4366}
      .teal{fill:#0D9373}
      .stroke{stroke:#0D4366;stroke-width:3.5;stroke-linecap:round;stroke-linejoin:round;fill:none}
    </style>
  </defs>
  <g transform="translate(2,12)">
    <line x1="8" y1="20" x2="28" y2="20" class="stroke"/>
    <line x1="28" y1="20" x2="38" y2="8" class="stroke"/>
    <line x1="28" y1="20" x2="38" y2="32" class="stroke"/>
    <circle cx="8" cy="20" r="6" class="darkBlue"/>
    <circle cx="28" cy="20" r="5" class="teal"/>
    <circle cx="38" cy="8" r="5" class="teal"/>
    <circle cx="38" cy="32" r="5" class="teal"/>
    <g transform="translate(42,0)">
      <rect x="0" y="0" rx="3" ry="3" width="20" height="14" class="teal"/>
      <polygon points="4,14 8,14 6,17" class="teal"/>
      <circle cx="14" cy="6" r="2" class="darkBlue"/>
    </g>
    <g transform="translate(42,22)">
      <rect x="0" y="0" rx="3" ry="3" width="20" height="14" class="teal"/>
      <polygon points="4,0 8,0 6,-3" class="teal"/>
      <circle cx="14" cy="8" r="2" class="darkBlue"/>
    </g>
  </g>
</svg>
